<svg xmlns="http://www.w3.org/2000/svg" xmlns:xlink="http://www.w3.org/1999/xlink" width="500" zoomAndPan="magnify" viewBox="0 0 375 374.999991" height="500" preserveAspectRatio="xMidYMid meet" version="1.0"><defs><clipPath id="dea8236ef2"><path d="M 140.324219 146.25 L 204 146.25 L 204 210 L 140.324219 210 Z M 140.324219 146.25 " clip-rule="nonzero"/></clipPath><clipPath id="290a4d2e9b"><path d="M 140.324219 146.25 L 205 146.25 L 205 210 L 140.324219 210 Z M 140.324219 146.25 " clip-rule="nonzero"/></clipPath><clipPath id="2dd93ddca3"><path d="M 144 151 L 228.074219 151 L 228.074219 241.5 L 144 241.5 Z M 144 151 " clip-rule="nonzero"/></clipPath></defs><g clip-path="url(#dea8236ef2)"><path fill="#631433" d="M 140.996094 197.988281 L 140.996094 158.238281 C 140.996094 152.011719 146.0625 146.949219 152.332031 146.949219 L 192.25 146.949219 C 198.5 146.949219 203.585938 151.992188 203.585938 158.238281 L 203.585938 198.007812 C 203.585938 204.230469 198.519531 209.296875 192.25 209.296875 L 152.3125 209.296875 C 146.082031 209.277344 140.996094 204.214844 140.996094 197.988281 Z M 140.996094 197.988281 " fill-opacity="1" fill-rule="nonzero"/></g><g clip-path="url(#290a4d2e9b)"><path fill="#000000" d="M 140.324219 197.988281 L 140.324219 158.238281 C 140.324219 151.648438 145.71875 146.28125 152.332031 146.28125 L 192.25 146.28125 C 198.863281 146.28125 204.253906 151.648438 204.253906 158.238281 L 204.253906 198.007812 C 204.253906 204.59375 198.863281 209.960938 192.25 209.960938 L 152.3125 209.960938 C 145.71875 209.941406 140.324219 204.574219 140.324219 197.988281 Z M 202.917969 158.238281 C 202.917969 152.375 198.136719 147.613281 192.25 147.613281 L 152.3125 147.613281 C 146.445312 147.613281 141.664062 152.375 141.664062 158.238281 L 141.664062 198.007812 C 141.664062 203.871094 146.445312 208.628906 152.332031 208.628906 L 192.25 208.628906 C 198.136719 208.628906 202.917969 203.871094 202.917969 198.007812 Z M 202.917969 158.238281 " fill-opacity="1" fill-rule="nonzero"/></g><path fill="#000000" d="M 172.289062 168.289062 C 177.738281 168.289062 182.15625 172.6875 182.15625 178.113281 C 182.15625 183.539062 177.738281 187.9375 172.289062 187.9375 C 166.84375 187.9375 162.425781 183.539062 162.425781 178.113281 C 162.425781 172.6875 166.84375 168.289062 172.289062 168.289062 Z M 172.289062 168.289062 " fill-opacity="1" fill-rule="nonzero"/><path fill="#ffffff" d="M 168.90625 183.042969 C 167.664062 181.957031 166.878906 180.378906 166.878906 178.605469 C 166.878906 175.351562 169.539062 172.707031 172.808594 172.707031 C 174.699219 172.707031 176.402344 173.601562 177.472656 174.972656 L 220.640625 226.46875 L 211.273438 233.664062 Z M 168.90625 183.042969 " fill-opacity="1" fill-rule="nonzero"/><path fill="#000000" d="M 166.210938 178.605469 C 166.210938 174.992188 169.175781 172.039062 172.808594 172.039062 C 174.851562 172.039062 176.746094 172.953125 178.007812 174.570312 L 221.136719 226.050781 C 221.25 226.183594 221.308594 226.371094 221.289062 226.542969 C 221.269531 226.714844 221.175781 226.886719 221.039062 227 L 211.671875 234.199219 C 211.386719 234.40625 210.984375 234.367188 210.753906 234.101562 L 168.429688 183.5 C 167.015625 182.261719 166.210938 180.472656 166.210938 178.605469 Z M 219.683594 226.355469 L 176.957031 175.410156 C 175.941406 174.113281 174.433594 173.371094 172.808594 173.371094 C 169.902344 173.371094 167.550781 175.714844 167.550781 178.605469 C 167.550781 180.113281 168.199219 181.539062 169.347656 182.527344 C 169.367188 182.546875 169.402344 182.566406 169.421875 182.605469 L 211.367188 232.75 Z M 219.683594 226.355469 " fill-opacity="1" fill-rule="nonzero"/><path fill="#e8bad3" d="M 216.335938 218.757812 C 222.457031 218.757812 227.40625 223.6875 227.40625 229.78125 C 227.40625 235.871094 222.457031 240.804688 216.335938 240.804688 C 210.21875 240.804688 205.269531 235.871094 205.269531 229.78125 C 205.269531 223.6875 210.21875 218.757812 216.335938 218.757812 Z M 195.710938 159.226562 C 193.761719 159.226562 192.191406 157.664062 192.191406 155.722656 C 192.191406 153.78125 193.761719 152.222656 195.710938 152.222656 C 197.660156 152.222656 199.226562 153.78125 199.226562 155.722656 C 199.226562 157.664062 197.640625 159.226562 195.710938 159.226562 Z M 152.332031 155.722656 C 152.332031 153.78125 150.765625 152.222656 148.8125 152.222656 C 146.863281 152.222656 145.296875 153.78125 145.296875 155.722656 C 145.296875 157.664062 146.882812 159.226562 148.8125 159.226562 C 150.765625 159.226562 152.332031 157.648438 152.332031 155.722656 Z M 152.332031 201.507812 C 152.332031 199.566406 150.765625 198.007812 148.8125 198.007812 C 146.863281 198.007812 145.296875 199.566406 145.296875 201.507812 C 145.296875 203.453125 146.863281 205.011719 148.8125 205.011719 C 150.765625 205.011719 152.332031 203.433594 152.332031 201.507812 Z M 152.332031 201.507812 " fill-opacity="1" fill-rule="nonzero"/><g clip-path="url(#2dd93ddca3)"><path fill="#000000" d="M 191.523438 155.722656 C 191.523438 153.421875 193.398438 151.554688 195.710938 151.554688 C 198.023438 151.554688 199.898438 153.421875 199.898438 155.722656 C 199.898438 158.027344 198.023438 159.894531 195.710938 159.894531 C 193.398438 159.894531 191.523438 158.027344 191.523438 155.722656 Z M 198.558594 155.722656 C 198.558594 154.164062 197.277344 152.886719 195.710938 152.886719 C 194.140625 152.886719 192.859375 154.164062 192.859375 155.722656 C 192.859375 157.285156 194.140625 158.5625 195.710938 158.5625 C 197.277344 158.5625 198.558594 157.285156 198.558594 155.722656 Z M 144.648438 155.722656 C 144.648438 153.421875 146.519531 151.554688 148.832031 151.554688 C 151.148438 151.554688 153.019531 153.421875 153.019531 155.722656 C 153.019531 158.027344 151.148438 159.894531 148.832031 159.894531 C 146.519531 159.894531 144.648438 158.027344 144.648438 155.722656 Z M 151.664062 155.722656 C 151.664062 154.164062 150.382812 152.886719 148.8125 152.886719 C 147.246094 152.886719 145.964844 154.164062 145.964844 155.722656 C 145.964844 157.285156 147.246094 158.5625 148.8125 158.5625 C 150.402344 158.5625 151.664062 157.285156 151.664062 155.722656 Z M 144.648438 201.507812 C 144.648438 199.207031 146.519531 197.339844 148.832031 197.339844 C 151.148438 197.339844 153.019531 199.207031 153.019531 201.507812 C 153.019531 203.8125 151.148438 205.679688 148.832031 205.679688 C 146.519531 205.679688 144.648438 203.8125 144.648438 201.507812 Z M 151.664062 201.507812 C 151.664062 199.949219 150.382812 198.671875 148.8125 198.671875 C 147.246094 198.671875 145.964844 199.949219 145.964844 201.507812 C 145.964844 203.070312 147.246094 204.347656 148.8125 204.347656 C 150.402344 204.347656 151.664062 203.070312 151.664062 201.507812 Z M 204.597656 229.78125 C 204.597656 223.328125 209.855469 218.089844 216.335938 218.089844 C 222.820312 218.089844 228.074219 223.328125 228.074219 229.78125 C 228.074219 236.234375 222.820312 241.46875 216.335938 241.46875 C 209.855469 241.46875 204.597656 236.234375 204.597656 229.78125 Z M 226.738281 229.78125 C 226.738281 224.070312 222.074219 219.425781 216.335938 219.425781 C 210.601562 219.425781 205.9375 224.070312 205.9375 229.78125 C 205.9375 235.492188 210.601562 240.136719 216.335938 240.136719 C 222.074219 240.136719 226.738281 235.492188 226.738281 229.78125 Z M 226.738281 229.78125 " fill-opacity="1" fill-rule="nonzero"/></g></svg>