<svg xmlns="http://www.w3.org/2000/svg" xmlns:xlink="http://www.w3.org/1999/xlink" width="500" zoomAndPan="magnify" viewBox="0 0 375 374.999991" height="500" preserveAspectRatio="xMidYMid meet" version="1.0"><defs><clipPath id="29cf60e9e0"><path d="M 110.660156 147 L 214 147 L 214 250.242188 L 110.660156 250.242188 Z M 110.660156 147 " clip-rule="nonzero"/></clipPath><clipPath id="5948a642af"><path d="M 119 109.242188 L 264.410156 109.242188 L 264.410156 244 L 119 244 Z M 119 109.242188 " clip-rule="nonzero"/></clipPath></defs><path fill="#631433" d="M 194.175781 249.167969 L 130 249.167969 C 119.949219 249.167969 111.773438 241.027344 111.773438 230.949219 L 111.773438 166.808594 C 111.773438 156.761719 119.917969 148.59375 130 148.59375 L 194.207031 148.59375 C 204.253906 148.59375 212.429688 156.734375 212.429688 166.808594 L 212.429688 230.980469 C 212.402344 240.996094 204.226562 249.167969 194.175781 249.167969 Z M 194.175781 249.167969 " fill-opacity="1" fill-rule="nonzero"/><g clip-path="url(#29cf60e9e0)"><path fill="#000000" d="M 194.175781 250.242188 L 130 250.242188 C 119.363281 250.242188 110.699219 241.578125 110.699219 230.949219 L 110.699219 166.808594 C 110.699219 156.179688 119.363281 147.515625 130 147.515625 L 194.207031 147.515625 C 204.839844 147.515625 213.507812 156.179688 213.507812 166.808594 L 213.507812 230.980469 C 213.476562 241.578125 204.808594 250.242188 194.175781 250.242188 Z M 130 149.667969 C 120.53125 149.667969 112.847656 157.347656 112.847656 166.808594 L 112.847656 230.980469 C 112.847656 240.410156 120.53125 248.089844 130 248.089844 L 194.207031 248.089844 C 203.671875 248.089844 211.355469 240.410156 211.355469 230.949219 L 211.355469 166.808594 C 211.355469 157.347656 203.671875 149.667969 194.207031 149.667969 Z M 130 149.667969 " fill-opacity="1" fill-rule="nonzero"/></g><path fill="#000000" d="M 146.226562 198.878906 C 146.226562 190.125 153.328125 183.027344 162.085938 183.027344 C 170.847656 183.027344 177.945312 190.125 177.945312 198.878906 C 177.945312 207.632812 170.847656 214.730469 162.085938 214.730469 C 153.328125 214.730469 146.226562 207.632812 146.226562 198.878906 Z M 146.226562 198.878906 " fill-opacity="1" fill-rule="nonzero"/><path fill="#ffffff" d="M 170.046875 204.316406 C 168.296875 206.3125 165.746094 207.574219 162.886719 207.574219 C 157.628906 207.574219 153.359375 203.304688 153.359375 198.050781 C 153.359375 195.007812 154.800781 192.273438 157.015625 190.554688 L 240.15625 121.191406 L 251.773438 136.242188 Z M 170.046875 204.316406 " fill-opacity="1" fill-rule="nonzero"/><path fill="#000000" d="M 162.886719 208.648438 C 157.046875 208.648438 152.28125 203.886719 152.28125 198.050781 C 152.28125 194.761719 153.757812 191.722656 156.371094 189.695312 L 239.476562 120.390625 C 239.695312 120.207031 240 120.117188 240.277344 120.148438 C 240.554688 120.175781 240.832031 120.332031 241.015625 120.546875 L 252.632812 135.597656 C 252.972656 136.058594 252.910156 136.703125 252.480469 137.074219 L 170.785156 205.085938 C 168.789062 207.359375 165.898438 208.648438 162.886719 208.648438 Z M 239.96875 122.726562 L 157.722656 191.382812 C 155.632812 193.011719 154.433594 195.4375 154.433594 198.050781 C 154.433594 202.71875 158.214844 206.496094 162.886719 206.496094 C 165.3125 206.496094 167.621094 205.453125 169.21875 203.609375 C 169.25 203.578125 169.277344 203.519531 169.339844 203.488281 L 250.296875 136.089844 Z M 239.96875 122.726562 " fill-opacity="1" fill-rule="nonzero"/><path fill="#e8bad3" d="M 227.707031 128.101562 C 227.707031 118.273438 235.667969 110.316406 245.503906 110.316406 C 255.339844 110.316406 263.296875 118.273438 263.296875 128.101562 C 263.296875 137.933594 255.339844 145.890625 245.503906 145.890625 C 235.667969 145.890625 227.707031 137.933594 227.707031 128.101562 Z M 131.597656 161.25 C 131.597656 164.382812 129.078125 166.902344 125.941406 166.902344 C 122.808594 166.902344 120.285156 164.382812 120.285156 161.25 C 120.285156 158.113281 122.808594 155.597656 125.941406 155.597656 C 129.078125 155.597656 131.597656 158.144531 131.597656 161.25 Z M 125.941406 230.949219 C 122.808594 230.949219 120.285156 233.46875 120.285156 236.601562 C 120.285156 239.734375 122.808594 242.253906 125.941406 242.253906 C 129.078125 242.253906 131.597656 239.703125 131.597656 236.601562 C 131.597656 233.46875 129.046875 230.949219 125.941406 230.949219 Z M 199.859375 230.949219 C 196.726562 230.949219 194.207031 233.46875 194.207031 236.601562 C 194.207031 239.734375 196.726562 242.253906 199.859375 242.253906 C 202.996094 242.253906 205.515625 239.734375 205.515625 236.601562 C 205.515625 233.46875 202.964844 230.949219 199.859375 230.949219 Z M 199.859375 230.949219 " fill-opacity="1" fill-rule="nonzero"/><g clip-path="url(#5948a642af)"><path fill="#000000" d="M 125.941406 167.976562 C 122.222656 167.976562 119.210938 164.964844 119.210938 161.25 C 119.210938 157.53125 122.222656 154.519531 125.941406 154.519531 C 129.660156 154.519531 132.671875 157.53125 132.671875 161.25 C 132.671875 164.964844 129.660156 167.976562 125.941406 167.976562 Z M 125.941406 156.671875 C 123.421875 156.671875 121.363281 158.730469 121.363281 161.25 C 121.363281 163.765625 123.421875 165.824219 125.941406 165.824219 C 128.460938 165.824219 130.523438 163.765625 130.523438 161.25 C 130.523438 158.730469 128.460938 156.671875 125.941406 156.671875 Z M 125.941406 243.300781 C 122.222656 243.300781 119.210938 240.289062 119.210938 236.570312 C 119.210938 232.855469 122.222656 229.84375 125.941406 229.84375 C 129.660156 229.84375 132.671875 232.855469 132.671875 236.570312 C 132.671875 240.289062 129.660156 243.300781 125.941406 243.300781 Z M 125.941406 232.023438 C 123.421875 232.023438 121.363281 234.082031 121.363281 236.601562 C 121.363281 239.121094 123.421875 241.179688 125.941406 241.179688 C 128.460938 241.179688 130.523438 239.121094 130.523438 236.601562 C 130.523438 234.050781 128.460938 232.023438 125.941406 232.023438 Z M 199.859375 243.300781 C 196.140625 243.300781 193.128906 240.289062 193.128906 236.570312 C 193.128906 232.855469 196.140625 229.84375 199.859375 229.84375 C 203.578125 229.84375 206.589844 232.855469 206.589844 236.570312 C 206.589844 240.289062 203.578125 243.300781 199.859375 243.300781 Z M 199.859375 232.023438 C 197.339844 232.023438 195.28125 234.082031 195.28125 236.601562 C 195.28125 239.121094 197.339844 241.179688 199.859375 241.179688 C 202.382812 241.179688 204.441406 239.121094 204.441406 236.601562 C 204.441406 234.050781 202.382812 232.023438 199.859375 232.023438 Z M 245.503906 146.964844 C 235.082031 146.964844 226.632812 138.515625 226.632812 128.101562 C 226.632812 117.6875 235.082031 109.242188 245.503906 109.242188 C 255.921875 109.242188 264.375 117.6875 264.375 128.101562 C 264.375 138.515625 255.921875 146.964844 245.503906 146.964844 Z M 245.503906 111.390625 C 236.28125 111.390625 228.78125 118.886719 228.78125 128.101562 C 228.78125 137.320312 236.28125 144.8125 245.503906 144.8125 C 254.722656 144.8125 262.222656 137.320312 262.222656 128.101562 C 262.222656 118.886719 254.722656 111.390625 245.503906 111.390625 Z M 245.503906 111.390625 " fill-opacity="1" fill-rule="nonzero"/></g></svg>