<svg xmlns="http://www.w3.org/2000/svg" xmlns:xlink="http://www.w3.org/1999/xlink" width="500" zoomAndPan="magnify" viewBox="0 0 375 374.999991" height="500" preserveAspectRatio="xMidYMid meet" version="1.0"><defs><clipPath id="0488b8539e"><path d="M 141 168 L 203 168 L 203 230.722656 L 141 230.722656 Z M 141 168 " clip-rule="nonzero"/></clipPath><clipPath id="e05b0c67a2"><path d="M 140.601562 167 L 204 167 L 204 230.722656 L 140.601562 230.722656 Z M 140.601562 167 " clip-rule="nonzero"/></clipPath><clipPath id="e491f5fad6"><path d="M 145 144.472656 L 234.351562 144.472656 L 234.351562 227 L 145 227 Z M 145 144.472656 " clip-rule="nonzero"/></clipPath></defs><g clip-path="url(#0488b8539e)"><path fill="#631433" d="M 191.527344 230.0625 L 152.394531 230.0625 C 146.265625 230.0625 141.28125 225.085938 141.28125 218.921875 L 141.28125 179.6875 C 141.28125 173.542969 146.25 168.542969 152.394531 168.542969 L 191.542969 168.542969 C 197.671875 168.542969 202.65625 173.523438 202.65625 179.6875 L 202.65625 218.941406 C 202.640625 225.066406 197.652344 230.0625 191.527344 230.0625 Z M 191.527344 230.0625 " fill-opacity="1" fill-rule="nonzero"/></g><g clip-path="url(#e05b0c67a2)"><path fill="#000000" d="M 191.527344 230.722656 L 152.394531 230.722656 C 145.910156 230.722656 140.625 225.421875 140.625 218.921875 L 140.625 179.6875 C 140.625 173.183594 145.910156 167.886719 152.394531 167.886719 L 191.542969 167.886719 C 198.027344 167.886719 203.3125 173.183594 203.3125 179.6875 L 203.3125 218.941406 C 203.292969 225.421875 198.011719 230.722656 191.527344 230.722656 Z M 152.394531 169.199219 C 146.625 169.199219 141.9375 173.898438 141.9375 179.6875 L 141.9375 218.941406 C 141.9375 224.707031 146.625 229.40625 152.394531 229.40625 L 191.542969 229.40625 C 197.316406 229.40625 202 224.707031 202 218.921875 L 202 179.6875 C 202 173.898438 197.316406 169.199219 191.542969 169.199219 Z M 152.394531 169.199219 " fill-opacity="1" fill-rule="nonzero"/></g><path fill="#000000" d="M 162.289062 199.304688 C 162.289062 193.949219 166.621094 189.605469 171.960938 189.605469 C 177.300781 189.605469 181.628906 193.949219 181.628906 199.304688 C 181.628906 204.660156 177.300781 209 171.960938 209 C 166.621094 209 162.289062 204.660156 162.289062 199.304688 Z M 162.289062 199.304688 " fill-opacity="1" fill-rule="nonzero"/><path fill="#ffffff" d="M 176.8125 202.628906 C 175.746094 203.851562 174.191406 204.621094 172.449219 204.621094 C 169.242188 204.621094 166.636719 202.007812 166.636719 198.796875 C 166.636719 196.9375 167.519531 195.261719 168.867188 194.210938 L 219.5625 151.78125 L 226.644531 160.988281 Z M 176.8125 202.628906 " fill-opacity="1" fill-rule="nonzero"/><path fill="#000000" d="M 172.449219 205.277344 C 168.886719 205.277344 165.984375 202.367188 165.984375 198.796875 C 165.984375 196.785156 166.882812 194.925781 168.476562 193.683594 L 219.148438 151.292969 C 219.28125 151.179688 219.46875 151.125 219.636719 151.140625 C 219.804688 151.160156 219.972656 151.253906 220.085938 151.386719 L 227.167969 160.59375 C 227.375 160.875 227.339844 161.269531 227.078125 161.496094 L 177.265625 203.097656 C 176.046875 204.488281 174.285156 205.277344 172.449219 205.277344 Z M 219.449219 152.722656 L 169.300781 194.71875 C 168.023438 195.714844 167.292969 197.199219 167.292969 198.796875 C 167.292969 201.652344 169.597656 203.964844 172.449219 203.964844 C 173.929688 203.964844 175.332031 203.324219 176.308594 202.195312 C 176.328125 202.179688 176.347656 202.140625 176.382812 202.121094 L 225.746094 160.894531 Z M 219.449219 152.722656 " fill-opacity="1" fill-rule="nonzero"/><path fill="#e8bad3" d="M 211.972656 156.007812 C 211.972656 149.996094 216.824219 145.128906 222.820312 145.128906 C 228.820312 145.128906 233.671875 149.996094 233.671875 156.007812 C 233.671875 162.023438 228.820312 166.890625 222.820312 166.890625 C 216.824219 166.890625 211.972656 162.023438 211.972656 156.007812 Z M 153.371094 176.285156 C 153.371094 178.203125 151.832031 179.742188 149.921875 179.742188 C 148.011719 179.742188 146.472656 178.203125 146.472656 176.285156 C 146.472656 174.367188 148.011719 172.828125 149.921875 172.828125 C 151.832031 172.828125 153.371094 174.386719 153.371094 176.285156 Z M 149.921875 218.921875 C 148.011719 218.921875 146.472656 220.460938 146.472656 222.378906 C 146.472656 224.296875 148.011719 225.835938 149.921875 225.835938 C 151.832031 225.835938 153.371094 224.277344 153.371094 222.378906 C 153.371094 220.460938 151.816406 218.921875 149.921875 218.921875 Z M 194.992188 218.921875 C 193.082031 218.921875 191.542969 220.460938 191.542969 222.378906 C 191.542969 224.296875 193.082031 225.835938 194.992188 225.835938 C 196.902344 225.835938 198.441406 224.296875 198.441406 222.378906 C 198.441406 220.460938 196.886719 218.921875 194.992188 218.921875 Z M 194.992188 218.921875 " fill-opacity="1" fill-rule="nonzero"/><g clip-path="url(#e491f5fad6)"><path fill="#000000" d="M 149.921875 180.398438 C 147.652344 180.398438 145.816406 178.558594 145.816406 176.285156 C 145.816406 174.011719 147.652344 172.167969 149.921875 172.167969 C 152.191406 172.167969 154.027344 174.011719 154.027344 176.285156 C 154.027344 178.558594 152.191406 180.398438 149.921875 180.398438 Z M 149.921875 173.484375 C 148.386719 173.484375 147.128906 174.742188 147.128906 176.285156 C 147.128906 177.824219 148.386719 179.085938 149.921875 179.085938 C 151.457031 179.085938 152.714844 177.824219 152.714844 176.285156 C 152.714844 174.742188 151.457031 173.484375 149.921875 173.484375 Z M 149.921875 226.476562 C 147.652344 226.476562 145.816406 224.632812 145.816406 222.359375 C 145.816406 220.085938 147.652344 218.246094 149.921875 218.246094 C 152.191406 218.246094 154.027344 220.085938 154.027344 222.359375 C 154.027344 224.632812 152.191406 226.476562 149.921875 226.476562 Z M 149.921875 219.578125 C 148.386719 219.578125 147.128906 220.835938 147.128906 222.378906 C 147.128906 223.917969 148.386719 225.179688 149.921875 225.179688 C 151.457031 225.179688 152.714844 223.917969 152.714844 222.378906 C 152.714844 220.820312 151.457031 219.578125 149.921875 219.578125 Z M 194.992188 226.476562 C 192.726562 226.476562 190.886719 224.632812 190.886719 222.359375 C 190.886719 220.085938 192.726562 218.246094 194.992188 218.246094 C 197.261719 218.246094 199.097656 220.085938 199.097656 222.359375 C 199.097656 224.632812 197.261719 226.476562 194.992188 226.476562 Z M 194.992188 219.578125 C 193.457031 219.578125 192.199219 220.835938 192.199219 222.378906 C 192.199219 223.917969 193.457031 225.179688 194.992188 225.179688 C 196.53125 225.179688 197.785156 223.917969 197.785156 222.378906 C 197.785156 220.820312 196.53125 219.578125 194.992188 219.578125 Z M 222.820312 167.546875 C 216.46875 167.546875 211.316406 162.378906 211.316406 156.007812 C 211.316406 149.640625 216.46875 144.472656 222.820312 144.472656 C 229.175781 144.472656 234.328125 149.640625 234.328125 156.007812 C 234.328125 162.378906 229.175781 167.546875 222.820312 167.546875 Z M 222.820312 145.785156 C 217.199219 145.785156 212.628906 150.371094 212.628906 156.007812 C 212.628906 161.648438 217.199219 166.230469 222.820312 166.230469 C 228.445312 166.230469 233.015625 161.648438 233.015625 156.007812 C 233.015625 150.371094 228.445312 145.785156 222.820312 145.785156 Z M 222.820312 145.785156 " fill-opacity="1" fill-rule="nonzero"/></g></svg>