<svg xmlns="http://www.w3.org/2000/svg" xmlns:xlink="http://www.w3.org/1999/xlink" width="500" zoomAndPan="magnify" viewBox="0 0 375 374.999991" height="500" preserveAspectRatio="xMidYMid meet" version="1.0"><defs><clipPath id="0a76e828f0"><path d="M 110.699219 82.234375 L 215 82.234375 L 215 187 L 110.699219 187 Z M 110.699219 82.234375 " clip-rule="nonzero"/></clipPath><clipPath id="9414251f04"><path d="M 117 90 L 253.199219 90 L 253.199219 237.484375 L 117 237.484375 Z M 117 90 " clip-rule="nonzero"/></clipPath></defs><path fill="#631433" d="M 111.785156 166.5625 L 111.785156 101.765625 C 111.785156 91.617188 120.011719 83.363281 130.195312 83.363281 L 195.019531 83.363281 C 205.167969 83.363281 213.429688 91.589844 213.429688 101.765625 L 213.429688 166.59375 C 213.429688 176.742188 205.199219 184.996094 195.019531 184.996094 L 130.164062 184.996094 C 120.042969 184.964844 111.785156 176.710938 111.785156 166.5625 Z M 111.785156 166.5625 " fill-opacity="1" fill-rule="nonzero"/><g clip-path="url(#0a76e828f0)"><path fill="#000000" d="M 110.699219 166.5625 L 110.699219 101.765625 C 110.699219 91.03125 119.453125 82.277344 130.195312 82.277344 L 195.019531 82.277344 C 205.757812 82.277344 214.515625 91.03125 214.515625 101.765625 L 214.515625 166.59375 C 214.515625 177.332031 205.757812 186.082031 195.019531 186.082031 L 130.164062 186.082031 C 119.453125 186.050781 110.699219 177.300781 110.699219 166.5625 Z M 212.339844 101.765625 C 212.339844 92.207031 204.578125 84.449219 195.019531 84.449219 L 130.164062 84.449219 C 120.632812 84.449219 112.871094 92.207031 112.871094 101.765625 L 112.871094 166.59375 C 112.871094 176.152344 120.632812 183.910156 130.195312 183.910156 L 195.019531 183.910156 C 204.578125 183.910156 212.339844 176.152344 212.339844 166.59375 Z M 212.339844 101.765625 " fill-opacity="1" fill-rule="nonzero"/></g><path fill="#000000" d="M 162.605469 118.152344 C 171.453125 118.152344 178.625 125.320312 178.625 134.164062 C 178.625 143.007812 171.453125 150.175781 162.605469 150.175781 C 153.757812 150.175781 146.585938 143.007812 146.585938 134.164062 C 146.585938 125.320312 153.757812 118.152344 162.605469 118.152344 Z M 162.605469 118.152344 " fill-opacity="1" fill-rule="nonzero"/><path fill="#ffffff" d="M 157.109375 142.203125 C 155.09375 140.433594 153.820312 137.855469 153.820312 134.972656 C 153.820312 129.664062 158.136719 125.351562 163.445312 125.351562 C 166.519531 125.351562 169.28125 126.808594 171.019531 129.042969 L 241.121094 212.988281 L 225.910156 224.714844 Z M 157.109375 142.203125 " fill-opacity="1" fill-rule="nonzero"/><path fill="#000000" d="M 152.734375 134.972656 C 152.734375 129.074219 157.546875 124.265625 163.445312 124.265625 C 166.765625 124.265625 169.839844 125.753906 171.890625 128.390625 L 241.929688 212.304688 C 242.113281 212.519531 242.207031 212.832031 242.175781 213.109375 C 242.144531 213.390625 241.988281 213.667969 241.773438 213.855469 L 226.558594 225.585938 C 226.09375 225.925781 225.441406 225.863281 225.070312 225.429688 L 156.335938 142.945312 C 154.039062 140.929688 152.734375 138.011719 152.734375 134.972656 Z M 239.570312 212.800781 L 170.179688 129.757812 C 168.535156 127.648438 166.082031 126.4375 163.445312 126.4375 C 158.726562 126.4375 154.90625 130.253906 154.90625 134.972656 C 154.90625 137.421875 155.960938 139.75 157.824219 141.363281 C 157.855469 141.394531 157.917969 141.425781 157.949219 141.488281 L 226.0625 223.226562 Z M 239.570312 212.800781 " fill-opacity="1" fill-rule="nonzero"/><path fill="#e8bad3" d="M 234.136719 200.417969 C 244.070312 200.417969 252.109375 208.457031 252.109375 218.386719 C 252.109375 228.316406 244.070312 236.355469 234.136719 236.355469 C 224.199219 236.355469 216.160156 228.316406 216.160156 218.386719 C 216.160156 208.457031 224.199219 200.417969 234.136719 200.417969 Z M 200.636719 103.378906 C 197.46875 103.378906 194.925781 100.835938 194.925781 97.671875 C 194.925781 94.503906 197.46875 91.960938 200.636719 91.960938 C 203.804688 91.960938 206.347656 94.503906 206.347656 97.671875 C 206.347656 100.835938 203.773438 103.378906 200.636719 103.378906 Z M 130.195312 97.671875 C 130.195312 94.503906 127.648438 91.960938 124.480469 91.960938 C 121.316406 91.960938 118.769531 94.503906 118.769531 97.671875 C 118.769531 100.835938 121.347656 103.378906 124.480469 103.378906 C 127.648438 103.378906 130.195312 100.804688 130.195312 97.671875 Z M 130.195312 172.304688 C 130.195312 169.136719 127.648438 166.59375 124.480469 166.59375 C 121.316406 166.59375 118.769531 169.136719 118.769531 172.304688 C 118.769531 175.46875 121.316406 178.011719 124.480469 178.011719 C 127.648438 178.011719 130.195312 175.4375 130.195312 172.304688 Z M 130.195312 172.304688 " fill-opacity="1" fill-rule="nonzero"/><g clip-path="url(#9414251f04)"><path fill="#000000" d="M 193.839844 97.671875 C 193.839844 93.914062 196.878906 90.875 200.636719 90.875 C 204.394531 90.875 207.4375 93.914062 207.4375 97.671875 C 207.4375 101.425781 204.394531 104.464844 200.636719 104.464844 C 196.878906 104.464844 193.839844 101.425781 193.839844 97.671875 Z M 205.261719 97.671875 C 205.261719 95.125 203.183594 93.046875 200.636719 93.046875 C 198.089844 93.046875 196.011719 95.125 196.011719 97.671875 C 196.011719 100.214844 198.089844 102.292969 200.636719 102.292969 C 203.183594 102.292969 205.261719 100.214844 205.261719 97.671875 Z M 117.714844 97.671875 C 117.714844 93.914062 120.757812 90.875 124.511719 90.875 C 128.269531 90.875 131.3125 93.914062 131.3125 97.671875 C 131.3125 101.425781 128.269531 104.464844 124.511719 104.464844 C 120.757812 104.464844 117.714844 101.425781 117.714844 97.671875 Z M 129.109375 97.671875 C 129.109375 95.125 127.027344 93.046875 124.480469 93.046875 C 121.9375 93.046875 119.855469 95.125 119.855469 97.671875 C 119.855469 100.214844 121.9375 102.292969 124.480469 102.292969 C 127.058594 102.292969 129.109375 100.214844 129.109375 97.671875 Z M 117.714844 172.304688 C 117.714844 168.546875 120.757812 165.507812 124.511719 165.507812 C 128.269531 165.507812 131.3125 168.546875 131.3125 172.304688 C 131.3125 176.058594 128.269531 179.097656 124.511719 179.097656 C 120.757812 179.097656 117.714844 176.058594 117.714844 172.304688 Z M 129.109375 172.304688 C 129.109375 169.757812 127.027344 167.679688 124.480469 167.679688 C 121.9375 167.679688 119.855469 169.757812 119.855469 172.304688 C 119.855469 174.847656 121.9375 176.925781 124.480469 176.925781 C 127.058594 176.925781 129.109375 174.847656 129.109375 172.304688 Z M 215.074219 218.386719 C 215.074219 207.867188 223.609375 199.332031 234.136719 199.332031 C 244.660156 199.332031 253.199219 207.867188 253.199219 218.386719 C 253.199219 228.90625 244.660156 237.441406 234.136719 237.441406 C 223.609375 237.441406 215.074219 228.90625 215.074219 218.386719 Z M 251.023438 218.386719 C 251.023438 209.078125 243.449219 201.503906 234.136719 201.503906 C 224.820312 201.503906 217.246094 209.078125 217.246094 218.386719 C 217.246094 227.695312 224.820312 235.269531 234.136719 235.269531 C 243.449219 235.269531 251.023438 227.695312 251.023438 218.386719 Z M 251.023438 218.386719 " fill-opacity="1" fill-rule="nonzero"/></g></svg>