<svg xmlns="http://www.w3.org/2000/svg" xmlns:xlink="http://www.w3.org/1999/xlink" width="500" zoomAndPan="magnify" viewBox="0 0 375 374.999991" height="500" preserveAspectRatio="xMidYMid meet" version="1.0"><defs><clipPath id="a8dde0533b"><path d="M 117 129.929688 L 258 129.929688 L 258 270.929688 L 117 270.929688 Z M 117 129.929688 " clip-rule="nonzero"/></clipPath></defs><g clip-path="url(#a8dde0533b)"><path fill="#631433" d="M 187.5 129.929688 C 148.5625 129.929688 117 161.496094 117 200.429688 C 117 239.367188 148.5625 270.929688 187.5 270.929688 C 226.4375 270.929688 258 239.367188 258 200.429688 C 258 161.496094 226.4375 129.929688 187.5 129.929688 Z M 144.53125 166.710938 L 230.378906 166.710938 C 230.59375 166.707031 230.742188 166.808594 230.820312 167.007812 C 230.902344 167.207031 230.863281 167.378906 230.707031 167.527344 L 201.847656 194.917969 L 201.800781 194.964844 L 193.183594 203.140625 C 192.773438 203.535156 192.328125 203.882812 191.847656 204.191406 C 191.371094 204.496094 190.867188 204.757812 190.335938 204.964844 C 189.808594 205.175781 189.265625 205.332031 188.707031 205.4375 C 188.148438 205.542969 187.582031 205.597656 187.015625 205.59375 C 186.445312 205.589844 185.882812 205.53125 185.324219 205.421875 C 184.765625 205.308594 184.226562 205.144531 183.699219 204.929688 C 183.171875 204.714844 182.671875 204.453125 182.195312 204.140625 C 181.71875 203.828125 181.277344 203.472656 180.871094 203.074219 L 172.894531 195.339844 C 172.878906 195.328125 172.867188 195.316406 172.851562 195.300781 L 144.199219 167.523438 C 144.046875 167.375 144.007812 167.203125 144.089844 167.003906 C 144.171875 166.808594 144.316406 166.707031 144.53125 166.710938 Z M 140.484375 229.414062 L 140.484375 170.5 C 140.484375 170.289062 140.582031 170.144531 140.773438 170.0625 C 140.964844 169.980469 141.136719 170.011719 141.289062 170.15625 L 168.519531 196.558594 C 168.609375 196.644531 168.65625 196.75 168.660156 196.875 C 168.667969 197 168.632812 197.109375 168.550781 197.203125 L 141.324219 229.722656 C 141.179688 229.890625 141.003906 229.9375 140.796875 229.863281 C 140.585938 229.785156 140.484375 229.636719 140.484375 229.414062 Z M 231.261719 234.152344 L 143.738281 234.152344 C 143.535156 234.152344 143.394531 234.0625 143.308594 233.878906 C 143.222656 233.695312 143.246094 233.527344 143.375 233.375 L 171.328125 199.992188 C 171.417969 199.886719 171.527344 199.832031 171.667969 199.824219 C 171.804688 199.816406 171.921875 199.859375 172.023438 199.957031 L 178.140625 205.886719 C 179.324219 207.042969 180.683594 207.929688 182.210938 208.554688 C 183.742188 209.179688 185.335938 209.496094 186.988281 209.5 L 187.058594 209.5 C 188.699219 209.503906 190.28125 209.199219 191.808594 208.59375 C 193.332031 207.984375 194.6875 207.113281 195.875 205.980469 L 202.648438 199.554688 C 202.746094 199.460938 202.863281 199.417969 203 199.425781 C 203.136719 199.433594 203.25 199.488281 203.335938 199.59375 L 231.625 233.375 C 231.753906 233.527344 231.777344 233.695312 231.691406 233.878906 C 231.605469 234.058594 231.464844 234.152344 231.261719 234.152344 Z M 234.515625 229.414062 C 234.515625 229.636719 234.410156 229.785156 234.203125 229.863281 C 233.996094 229.9375 233.820312 229.890625 233.675781 229.71875 L 206.148438 196.847656 C 206.066406 196.75 206.03125 196.640625 206.039062 196.515625 C 206.046875 196.390625 206.09375 196.285156 206.1875 196.199219 L 233.714844 170.070312 C 233.867188 169.929688 234.039062 169.898438 234.230469 169.980469 C 234.417969 170.0625 234.515625 170.207031 234.515625 170.414062 Z M 234.515625 229.414062 " fill-opacity="1" fill-rule="nonzero"/></g></svg>