<svg xmlns="http://www.w3.org/2000/svg" xmlns:xlink="http://www.w3.org/1999/xlink" width="500" zoomAndPan="magnify" viewBox="0 0 375 374.999991" height="500" preserveAspectRatio="xMidYMid meet" version="1.0"><path fill="#631433" d="M 178.222656 121.070312 C 146.417969 124.597656 120.5 150.257812 116.664062 182.015625 C 116.414062 184.007812 116.25 186.011719 116.175781 188.019531 C 116.097656 190.027344 116.109375 192.035156 116.203125 194.042969 C 116.300781 196.050781 116.480469 198.050781 116.746094 200.042969 C 117.015625 202.035156 117.367188 204.011719 117.804688 205.976562 C 118.238281 207.9375 118.757812 209.875 119.363281 211.792969 C 119.964844 213.710938 120.648438 215.601562 121.414062 217.457031 C 122.179688 219.316406 123.023438 221.140625 123.945312 222.925781 C 124.863281 224.714844 125.859375 226.457031 126.929688 228.160156 C 128.003906 229.859375 129.144531 231.511719 130.355469 233.113281 C 131.570312 234.71875 132.847656 236.265625 134.191406 237.761719 C 135.539062 239.253906 136.945312 240.6875 138.414062 242.058594 C 139.878906 243.433594 141.40625 244.742188 142.984375 245.984375 C 144.566406 247.226562 146.195312 248.398438 147.875 249.5 C 149.558594 250.601562 151.28125 251.632812 153.050781 252.585938 C 154.820312 253.539062 156.625 254.417969 158.472656 255.214844 C 160.316406 256.015625 162.191406 256.734375 164.097656 257.375 C 167.605469 257.933594 168.726562 255.761719 168.726562 253.871094 L 168.726562 242.011719 C 149.300781 246.234375 145.164062 232.621094 145.164062 232.621094 C 141.949219 224.484375 137.378906 222.308594 137.378906 222.308594 C 130.996094 217.957031 137.875 218.101562 137.875 218.101562 C 144.886719 218.597656 148.605469 225.328125 148.605469 225.328125 C 154.707031 235.984375 165.015625 232.828125 169.011719 231.144531 C 169.640625 226.585938 171.492188 223.5 173.429688 221.746094 C 157.835938 219.996094 141.515625 213.960938 141.515625 187.246094 C 141.515625 179.460938 144.183594 173.222656 148.738281 168.242188 C 148.039062 166.488281 145.582031 159.195312 149.441406 149.726562 C 149.441406 149.726562 155.332031 147.832031 168.726562 156.882812 C 174.46875 155.335938 180.3125 154.5625 186.257812 154.5625 C 192.203125 154.5625 198.046875 155.335938 203.789062 156.882812 C 217.195312 147.832031 223.078125 149.726562 223.078125 149.726562 C 226.929688 159.195312 224.476562 166.488281 223.777344 168.242188 C 228.335938 173.207031 231 179.460938 231 187.246094 C 231 214.03125 214.585938 219.925781 198.953125 221.675781 C 201.476562 223.851562 203.789062 228.132812 203.789062 234.652344 L 203.789062 253.871094 C 203.789062 255.761719 204.910156 258.003906 208.492188 257.375 C 210.523438 256.691406 212.523438 255.917969 214.488281 255.054688 C 216.449219 254.191406 218.371094 253.238281 220.246094 252.195312 C 222.121094 251.15625 223.945312 250.03125 225.71875 248.820312 C 227.492188 247.613281 229.207031 246.328125 230.863281 244.960938 C 232.515625 243.597656 234.105469 242.15625 235.628906 240.648438 C 237.152344 239.136719 238.601562 237.558594 239.980469 235.914062 C 241.359375 234.269531 242.660156 232.566406 243.882812 230.804688 C 245.105469 229.039062 246.242188 227.222656 247.296875 225.355469 C 248.355469 223.488281 249.320312 221.578125 250.203125 219.621094 C 251.082031 217.664062 251.871094 215.671875 252.570312 213.640625 C 253.265625 211.613281 253.871094 209.558594 254.378906 207.472656 C 254.890625 205.390625 255.300781 203.285156 255.617188 201.164062 C 255.933594 199.042969 256.152344 196.910156 256.273438 194.769531 C 256.394531 192.625 256.417969 190.484375 256.339844 188.339844 C 256.265625 186.195312 256.09375 184.058594 255.820312 181.929688 C 255.546875 179.800781 255.179688 177.691406 254.714844 175.597656 C 254.25 173.5 253.691406 171.433594 253.035156 169.390625 C 252.378906 167.347656 251.632812 165.339844 250.792969 163.363281 C 249.957031 161.390625 249.027344 159.457031 248.011719 157.566406 C 246.996094 155.675781 245.894531 153.839844 244.710938 152.050781 C 243.527344 150.261719 242.261719 148.53125 240.917969 146.859375 C 239.574219 145.183594 238.15625 143.578125 236.667969 142.035156 C 235.175781 140.492188 233.617188 139.019531 231.992188 137.621094 C 230.367188 136.21875 228.679688 134.898438 226.933594 133.652344 C 225.183594 132.40625 223.386719 131.246094 221.53125 130.164062 C 219.679688 129.085938 217.777344 128.089844 215.832031 127.183594 C 213.890625 126.277344 211.90625 125.464844 209.886719 124.738281 C 207.867188 124.015625 205.820312 123.382812 203.742188 122.847656 C 201.664062 122.3125 199.566406 121.871094 197.449219 121.527344 C 195.332031 121.183594 193.203125 120.9375 191.0625 120.785156 C 188.921875 120.636719 186.78125 120.585938 184.636719 120.632812 C 182.492188 120.683594 180.351562 120.828125 178.222656 121.070312 Z M 178.222656 121.070312 " fill-opacity="1" fill-rule="nonzero"/></svg>