<svg xmlns="http://www.w3.org/2000/svg" xmlns:xlink="http://www.w3.org/1999/xlink" width="500" zoomAndPan="magnify" viewBox="0 0 375 374.999991" height="500" preserveAspectRatio="xMidYMid meet" version="1.0"><defs><clipPath id="686371763e"><path d="M 117 117 L 258 117 L 258 258 L 117 258 Z M 117 117 " clip-rule="nonzero"/></clipPath></defs><g clip-path="url(#686371763e)"><path fill="#631433" d="M 258 236.5625 C 258 248.394531 248.40625 257.984375 236.574219 257.984375 L 138.429688 257.984375 C 126.597656 257.984375 117.003906 248.394531 117.003906 236.5625 L 117.003906 138.417969 C 117.003906 126.582031 126.597656 116.992188 138.429688 116.992188 L 236.574219 116.992188 C 248.40625 116.992188 258 126.582031 258 138.417969 Z M 258 236.5625 " fill-opacity="1" fill-rule="nonzero"/></g><path fill="#ffffff" d="M 172.757812 167.292969 C 172.757812 167.984375 172.691406 168.671875 172.554688 169.347656 C 172.421875 170.027344 172.21875 170.6875 171.957031 171.324219 C 171.691406 171.964844 171.367188 172.570312 170.984375 173.144531 C 170.597656 173.722656 170.160156 174.253906 169.671875 174.742188 C 169.183594 175.230469 168.652344 175.667969 168.078125 176.050781 C 167.5 176.4375 166.894531 176.761719 166.253906 177.027344 C 165.617188 177.289062 164.957031 177.488281 164.28125 177.625 C 163.601562 177.757812 162.917969 177.828125 162.226562 177.828125 C 161.535156 177.828125 160.847656 177.757812 160.171875 177.625 C 159.492188 177.488281 158.832031 177.289062 158.195312 177.027344 C 157.554688 176.761719 156.949219 176.4375 156.375 176.050781 C 155.796875 175.667969 155.265625 175.230469 154.777344 174.742188 C 154.289062 174.253906 153.851562 173.722656 153.46875 173.144531 C 153.082031 172.570312 152.757812 171.964844 152.492188 171.324219 C 152.230469 170.6875 152.03125 170.027344 151.894531 169.347656 C 151.757812 168.671875 151.691406 167.984375 151.691406 167.292969 C 151.691406 166.601562 151.757812 165.917969 151.894531 165.238281 C 152.03125 164.5625 152.230469 163.902344 152.492188 163.265625 C 152.757812 162.625 153.082031 162.019531 153.46875 161.441406 C 153.851562 160.867188 154.289062 160.335938 154.777344 159.847656 C 155.265625 159.359375 155.796875 158.921875 156.375 158.535156 C 156.949219 158.152344 157.554688 157.828125 158.195312 157.5625 C 158.832031 157.296875 159.492188 157.097656 160.171875 156.964844 C 160.847656 156.828125 161.535156 156.761719 162.226562 156.761719 C 162.917969 156.761719 163.601562 156.828125 164.28125 156.964844 C 164.957031 157.097656 165.617188 157.296875 166.253906 157.5625 C 166.894531 157.828125 167.5 158.152344 168.078125 158.535156 C 168.652344 158.921875 169.183594 159.359375 169.671875 159.847656 C 170.160156 160.335938 170.597656 160.867188 170.984375 161.441406 C 171.367188 162.019531 171.691406 162.625 171.957031 163.265625 C 172.21875 163.902344 172.421875 164.5625 172.554688 165.238281 C 172.691406 165.917969 172.757812 166.601562 172.757812 167.292969 Z M 172.757812 167.292969 " fill-opacity="1" fill-rule="nonzero"/><path fill="#ffffff" d="M 153.144531 185.59375 L 171.238281 185.59375 L 171.238281 243.804688 L 153.144531 243.804688 Z M 153.144531 185.59375 " fill-opacity="1" fill-rule="nonzero"/><path fill="#ffffff" d="M 182.621094 185.59375 L 199.84375 185.59375 L 199.84375 243.804688 L 182.621094 243.804688 Z M 182.621094 185.59375 " fill-opacity="1" fill-rule="nonzero"/><path fill="#ffffff" d="M 183.363281 216.585938 L 200.585938 216.585938 L 200.585938 243.804688 L 183.363281 243.804688 Z M 183.363281 216.585938 " fill-opacity="1" fill-rule="nonzero"/><path fill="#ffffff" d="M 200.585938 216.585938 C 200.585938 216.585938 200.316406 209.035156 202.308594 205.109375 C 202.308594 205.109375 204.300781 200.273438 210.558594 200.246094 C 210.558594 200.246094 217.898438 198.964844 220.003906 206.25 C 220.003906 206.25 220.800781 210.289062 220.800781 211.996094 C 220.800781 213.703125 220.859375 243.804688 220.859375 243.804688 L 238.898438 243.804688 L 238.898438 210.460938 C 238.898438 210.460938 240.207031 191.625 228.902344 186.464844 C 228.902344 186.464844 210.3125 178.121094 200.222656 193.445312 C 200.222656 193.445312 198.023438 194.960938 197.71875 190.714844 C 197.414062 186.464844 194.835938 197.238281 194.757812 197.464844 C 194.683594 197.695312 197.71875 218.9375 197.71875 218.9375 Z M 200.585938 216.585938 " fill-opacity="1" fill-rule="nonzero"/></svg>